# xmcd CD database file
#
# Track frame offsets:
#	183
#	25088
#	44190
#	58728
#	74750
#	99000
#	119653
#	135065
#	158448
#	172568
#
# Disc length: 2612 seconds
#
# Revision: 2
# Processed by: cddbd v1.5.2PL0 Copyright (c) Steve Scherf et al.
# Submitted via: CDex 1.51
#
DISCID=7a0a320a
DTITLE=Donny Hathaway - Extension Of A Man
DYEAR=1973
DGENRE=Soul
TTITLE0=I Love The Lord, He Heard My Cry
TTITLE1=Someday We'll All Be Free
TTITLE2=Flying Easy
TTITLE3=Valdez In The Country
TTITLE4=I Love You More Than You'll Ever Know
TTITLE5=Come Little Children
TTITLE6=Love, Love, Love
TTITLE7=The Slums
TTITLE8=Magdalena
TTITLE9=I Know It's You
EXTD=YEAR: 1973
EXTT0=(Part I and II)
EXTT1=
EXTT2=
EXTT3=
EXTT4=
EXTT5=
EXTT6=
EXTT7=
EXTT8=
EXTT9=
PLAYORDER=
